<?xml version="1.0" encoding="utf-8"?>
<!-- Generator: Adobe Illustrator 19.0.0, SVG Export Plug-In . SVG Version: 6.00 Build 0)  -->
<svg version="1.1" id="Layer_1" xmlns="http://www.w3.org/2000/svg" xmlns:xlink="http://www.w3.org/1999/xlink" x="0px" y="0px"
	 viewBox="-251 521 137 96" style="enable-background:new -251 521 137 96;" xml:space="preserve">
<style type="text/css">
	.st0{fill:#E31838;}
</style>
<g>
	<path class="st0" d="M-235.6,573.4c-0.1,0.1-0.2,0.2-0.2,0.3v1c0,0.2,0.2,0.4,0.4,0.4c0.2,0,0.4-0.2,0.4-0.4v-0.8
		c1-0.8,4.9-4.2,4.9-9.5c0-2.1-1.5-4.9-2.5-7c-0.5-0.9-1-2-1-2.3c0-0.2-0.2-0.4-0.4-0.4s-0.4,0.2-0.4,0.4c0,0.5,0.4,1.2,1.1,2.6
		c1,2,2.4,4.7,2.4,6.6C-230.9,569.7-235.1,573.1-235.6,573.4"/>
	<path class="st0" d="M-237.6,576.4c0.1-0.1,0.1-0.3,0.2-0.4c0-0.1,0.1-0.1,0.1-0.2l0,0c1-2.1,1.9-4.2,1.9-5.1v-1.2h-1.4
		c-0.2,0-0.3,0.1-0.4,0.3l-0.5,4v-4h-1c-0.3,0-0.4,0.1-0.4,0.3c-0.5,6.8-0.5,6.9-0.5,6.9v-6.8h-0.6v-0.8c0-3.5,3-6.8,6.2-6.8
		c0.2,0,0.4-0.2,0.4-0.4c0-1.2-0.9-3.1-1.7-4.9c-0.7-1.5-1.4-3.1-1.4-3.9c0-0.6,0.2-1.3,1.6-1.3c0.8,0,1.6,1.1,1.9,1.5
		c0,0.1,0.1,0.1,0.1,0.2c0.1,0.2,0.4,0.2,0.6,0.1c0.2-0.1,0.2-0.4,0.1-0.6l-0.1-0.1c-0.4-0.6-1.3-1.9-2.6-1.9
		c-2.1,0-2.4,1.3-2.4,2.1c0,1,0.7,2.6,1.5,4.2c0.7,1.5,1.4,3.1,1.6,4.2c-1.6,0.1-3.2,1-4.5,2.3c-1.4,1.5-2.1,3.4-2.1,5.3v10.3v0.7
		v0.4h0.4C-239.6,580.9-239,579.4-237.6,576.4L-237.6,576.4"/>
	<path class="st0" d="M-231.8,554.5c-0.4,0-0.9,0.8-0.9,1.1c0,0,0,0,0,0.1l6.7,5.2L-231.8,554.5L-231.8,554.5"/>
	<path class="st0" d="M-228.6,575.9h-6.4v0.9h6c0.3,0,0.4,0.2,0.4,0.4v0.8c0,0.4-0.1,0.8-0.5,1.1l-0.4,0.2c0,0,0,0.1,0.6,0.1
		c0.5,0,1.2-0.1,1.2-1.1v-1.8C-227.7,576.3-227.8,575.9-228.6,575.9"/>
	<path class="st0" d="M-233.6,590.6h-1.3c-0.4,0-0.7-0.2-0.7-0.5V576l-1.1,0.3l-0.2,0.4v0.1c0.3,0.5,0.6,1.3,0.6,1.5v11.9
		c0,0.3-0.2,0.5-0.5,0.5c-0.6,0-1.2,0.2-1.2,0.7v0.1h4.3c0.5,0,0.8,0.2,0.8,0.6v0.1h0.1c0.2,0,0.4-0.2,0.4-0.7
		C-232.6,591.1-232.9,590.6-233.6,590.6"/>
	<path class="st0" d="M-234.5,553.3L-234.5,553.3L-234.5,553.3c-0.3-0.1-0.5,0-0.9-0.1c0.3,0.3,0.3,0.6,0.6,0.9l0.1,0.1l0,0
		c0.3,0.2,0.7,0,1.3,0.3C-233.9,554-233.9,553.6-234.5,553.3C-234.4,553.4-234.4,553.4-234.5,553.3
		C-234.4,553.4-234.4,553.4-234.5,553.3L-234.5,553.3L-234.5,553.3"/>
	<polygon class="st0" points="-240.8,614 -240.2,614 -240.2,616.3 -239.4,616.3 -239.4,613.3 -240.8,613.3 	"/>
	<path class="st0" d="M-236.7,614.3c0.2-0.2,0.4-0.4,0.4-0.6c0-0.4-0.4-0.9-1.1-0.9s-1.1,0.5-1.1,0.9c0,0.3,0.1,0.5,0.4,0.6
		c-0.4,0.2-0.6,0.5-0.6,0.9c0,0.7,0.6,1.2,1.4,1.2c0.8,0,1.4-0.5,1.4-1.2C-236,614.8-236.2,614.5-236.7,614.3 M-237.4,613.4
		c0.2,0,0.3,0.1,0.3,0.3c0,0.2-0.1,0.3-0.3,0.3s-0.3-0.1-0.3-0.3C-237.7,613.5-237.6,613.4-237.4,613.4 M-237.4,615.6
		c-0.3,0-0.5-0.2-0.5-0.5c0-0.3,0.2-0.5,0.5-0.5s0.5,0.2,0.5,0.5C-236.9,615.4-237.1,615.6-237.4,615.6"/>
	<path class="st0" d="M-234.3,613.2c-0.8,0-1.3,0.5-1.3,1.2s0.5,1.1,1.2,1.1c0.1,0,0.2,0,0.2,0c-0.1,0.1-0.1,0.1-0.2,0.2l-0.7,1h0.9
		l0.9-1.2c0.3-0.4,0.5-0.8,0.5-1.2C-233,613.7-233.5,613.2-234.3,613.2 M-234.3,614.9c-0.3,0-0.5-0.2-0.5-0.5c0-0.2,0.2-0.5,0.5-0.5
		c0.3,0,0.5,0.2,0.5,0.5S-234,614.9-234.3,614.9"/>
	<path class="st0" d="M-231,614.5L-231,614.5l0.8-1.1v-0.1h-2.4v0.7h0.9c0.1,0,0.2,0,0.3,0c0,0-0.1,0.1-0.1,0.2l-0.7,0.9l0.1,0.1
		l0,0c0.1-0.1,0.2-0.1,0.5-0.1c0.4,0,0.6,0.2,0.6,0.5s-0.2,0.6-0.5,0.6s-0.5-0.1-0.6-0.4l0,0l-0.7,0.4l0,0c0.2,0.4,0.6,0.8,1.4,0.8
		c1,0,1.4-0.7,1.4-1.3C-230.1,614.9-230.6,614.6-231,614.5"/>
	<path class="st0" d="M-246.9,547l0.3-0.4l1,1.4h1.1l-1.5-2.1l1.3-1.7h-1l-1,1.4c-0.1,0.1-0.1,0.2-0.2,0.3c0-0.1,0-0.2,0-0.3v-1.3
		h-0.9v3.8h0.9L-246.9,547L-246.9,547z"/>
	<polygon class="st0" points="-243.1,547 -241.6,547 -241.6,548.1 -240.7,548.1 -240.7,544.3 -241.6,544.3 -241.6,546.2 
		-243.1,546.2 -243.1,544.3 -244,544.3 -244,548.1 -243.1,548.1 	"/>
	<path class="st0" d="M-237.8,548.2c0.6,0,1.2-0.2,1.5-0.4l0,0V546h-1.7v0.8h0.9v0.4c-0.2,0.1-0.4,0.1-0.7,0.1
		c-0.7,0-1.2-0.5-1.2-1.2s0.4-1.2,1.1-1.2c0.4,0,0.6,0.1,0.8,0.3l0,0l0.6-0.6l0,0c-0.3-0.4-0.8-0.5-1.4-0.5c-1.2,0-2,0.8-2,2
		C-239.9,547.4-239.1,548.2-237.8,548.2"/>
	<path class="st0" d="M-233.6,548.2c0.3,0,0.7-0.1,1-0.3l0.2,0.2h1.1l-0.6-0.8c0.2-0.4,0.4-0.8,0.4-1.3v0h-0.8v0.1
		c0,0.2,0,0.4-0.1,0.6l-0.5-0.6c0.4-0.2,0.7-0.5,0.7-0.9c0-0.6-0.4-0.9-1-0.9c-0.6,0-1.1,0.4-1.1,0.9c0,0.3,0.1,0.5,0.2,0.7
		c-0.5,0.3-0.8,0.5-0.8,1.1C-235.1,547.7-234.5,548.2-233.6,548.2 M-233.4,544.9c0.1,0,0.2,0.1,0.2,0.2c0,0.1-0.1,0.2-0.3,0.4l0,0
		c-0.1-0.1-0.2-0.2-0.2-0.4C-233.7,545-233.5,544.9-233.4,544.9 M-233.8,546.4l0.7,0.9c-0.1,0.1-0.3,0.1-0.5,0.1
		c-0.4,0-0.6-0.1-0.6-0.4S-234.1,546.6-233.8,546.4"/>
	<path class="st0" d="M-228.4,548.2c0.7,0,1.3-0.3,1.6-0.8l0,0l-0.7-0.5l0,0c-0.2,0.4-0.5,0.5-0.9,0.5c-0.6,0-1.1-0.5-1.1-1.2
		s0.4-1.2,1.1-1.2c0.4,0,0.7,0.2,0.9,0.5v0.1l0.7-0.5l0,0c-0.3-0.5-0.9-0.8-1.6-0.8c-1.1,0-2,0.8-2,2
		C-230.4,547.3-229.5,548.2-228.4,548.2"/>
	<path class="st0" d="M-224.2,548.2c0.7,0,1.3-0.3,1.6-0.8l0,0l-0.7-0.5l0,0c-0.2,0.4-0.5,0.5-0.9,0.5c-0.6,0-1.1-0.5-1.1-1.2
		s0.4-1.2,1.1-1.2c0.4,0,0.7,0.2,0.9,0.5v0.1l0.7-0.5l0,0c-0.3-0.5-0.9-0.8-1.6-0.8c-1.1,0-2,0.8-2,2
		C-226.2,547.3-225.4,548.2-224.2,548.2"/>
	<path class="st0" d="M-222.3,540.8h-26.2c-1.4,0-2.5,1.2-2.5,2.8v64.7c0,1.5,1.1,2.8,2.5,2.8h26.2c1.4,0,2.5-1.2,2.5-2.8v-64.7
		C-219.8,542-220.9,540.8-222.3,540.8 M-240.1,599.3c1.2,0,2.2-1,2.2-2.2c0-0.3-0.1-0.6-0.2-0.9c0-0.1,0-0.1,0-0.1h0.1
		c0.7,0.6,1,1.5,1,2.4c0,1.8-1.5,3.2-3.2,3.2c-1.7,0-3.2-1.5-3.2-3.2c0-0.9,0.4-1.8,1-2.4h0.1c0,0,0.1,0.1,0,0.1
		c-0.1,0.3-0.2,0.6-0.2,0.9C-242.3,598.3-241.3,599.3-240.1,599.3 M-230.4,599.3c1.2,0,2.2-1,2.2-2.2c0-0.3-0.1-0.6-0.2-0.9v-0.1
		h0.1c0.7,0.6,1,1.5,1,2.4c0,1.8-1.5,3.2-3.2,3.2c-1.7,0-3.2-1.5-3.2-3.2c0-0.9,0.4-1.8,1-2.4h0.1c0,0,0.1,0.1,0,0.1
		c-0.1,0.3-0.2,0.6-0.2,0.9C-232.6,598.3-231.6,599.3-230.4,599.3 M-233.2,603.2L-233.2,603.2L-233.2,603.2c0.8,0.5,1.1,1.4,1.1,2.3
		c0,1.8-1.5,3.2-3.2,3.2c-1.8,0-3.2-1.5-3.2-3.2c0-0.9,0.4-1.8,1-2.4h0.1c0,0,0.1,0.1,0,0.1c-0.1,0.3-0.2,0.6-0.2,0.9
		c0,1.2,1,2.2,2.2,2.2c1.2,0,2.2-1,2.2-2.2C-233,603.8-233.1,603.5-233.2,603.2 M-248.4,541.7h26.2c0.8,0,1.5,0.8,1.5,1.8V593
		c-0.1,0.7-0.9,0.7-1.6,0.7h-26c-0.7,0-1.6-0.1-1.6-0.8v-49.5C-249.9,542.5-249.3,541.7-248.4,541.7"/>
	<path class="st0" d="M-235.8,526c-0.6,0-0.7,0.6-0.7,1.3c0,0.5,0.2,2.9,0.4,4c0.2-0.1,0.5-0.1,0.8-0.1c0.3,0,0.5,0.1,0.8,0.2
		c0.2-1.2,0.4-3.5,0.4-4c0-0.6-0.1-1.3-0.7-1.3C-234.9,526-235.8,526-235.8,526z"/>
	<polygon class="st0" points="-243.9,539.2 -235.4,539.2 -226.8,539.2 -226.8,537.6 -243.9,537.6 	"/>
	<path class="st0" d="M-245.1,533.2l0.7,2.2l0.5,1.5h17.2l0.5-1.5l0.7-2.2c0.2-0.8,0-1.2-1.1-1.2c-0.8,0-1.2,0.4-1.2,1
		c-0.4,0-0.7,0-0.9,0.2c-0.2,0.1-0.3,0.3-0.3,0.6c0,0.5,0.2,0.8,0.6,1c0.2,0.1,0.3,0.2,0.5,0.2c0.3,0.1,0.6,0.1,1,0.1
		c0,0.1-0.1,0.2-0.1,0.2c-0.3,0.5-1,0.6-1.7,0.6c-1,0-1.9-0.3-1.9-1.2c0.2-0.1,0.3-0.2,0.4-0.3c0.1-0.1,0.2-0.3,0.2-0.5
		s-0.1-0.4-0.2-0.5c-0.2-0.2-0.4-0.3-0.7-0.3c-0.3,0-0.6,0.1-0.7,0.4c-0.1,0.1-0.2,0.3-0.2,0.5c0,0.4,0.3,0.7,0.6,0.8
		c0,0.9-0.8,1.2-1.9,1.2c-0.8,0-1.5-0.1-1.7-0.6c0-0.1-0.1-0.2-0.1-0.2c0.3,0,0.7-0.1,1-0.1c0.6-0.2,1.1-0.5,1.1-1.2
		c0-0.3-0.1-0.5-0.3-0.6c-0.2-0.1-0.5-0.2-0.9-0.2c0-0.7-0.4-1-1.2-1c-0.8,0-1.2,0.4-1.2,1c-0.4,0-0.7,0-0.9,0.2
		c-0.2,0.1-0.3,0.3-0.3,0.6c0,0.7,0.5,1,1.1,1.2c0.3,0.1,0.6,0.1,1,0.1c0,0.1-0.1,0.2-0.1,0.2c-0.3,0.5-1,0.6-1.7,0.6
		c-1,0-1.9-0.3-1.9-1.2c0.3-0.1,0.6-0.4,0.6-0.8c0-0.5-0.4-0.9-0.9-0.9c-0.3,0-0.5,0.1-0.7,0.3c-0.1,0.2-0.2,0.3-0.2,0.5
		c0,0.1,0,0.1,0,0.1c0.1,0.3,0.3,0.6,0.6,0.7c0,0.9-0.8,1.2-1.9,1.2c-0.8,0-1.5-0.1-1.7-0.6c0-0.1-0.1-0.2-0.1-0.3
		c0.4,0,0.7-0.1,1-0.2c0.2-0.1,0.3-0.1,0.5-0.2c0.3-0.2,0.6-0.5,0.6-1c0-0.3-0.1-0.5-0.2-0.6c-0.2-0.2-0.5-0.2-0.9-0.2
		c0-0.7-0.4-1-1.2-1C-245,532-245.3,532.4-245.1,533.2"/>
	<path class="st0" d="M-244.7,531.4c-1.6-2.1,0.2-2.3,1-2.5c0,0-0.1-0.1-0.1-0.5c0-0.3,0.1-0.5,0.1-0.5s-2.4-0.3-3,1
		c-0.5,1.1,0.7,2.6,1.1,3C-245.4,531.7-245,531.5-244.7,531.4"/>
	<path class="st0" d="M-226,531.4c0.4,0.1,0.7,0.3,0.9,0.6c0.4-0.4,1.6-1.9,1.1-3c-0.6-1.4-3-1-3-1s0.1,0.2,0.1,0.5
		c0,0.4-0.1,0.5-0.1,0.5C-226.2,529.1-224.4,529.3-226,531.4"/>
	<path class="st0" d="M-229.9,528.5c0,1.5-1.1,3.6-1.3,3.9c0.5-0.1,1.1,0.1,1.4,0.4c0.4-0.6,2-3.3,2-4.8c0-0.8-0.5-1.5-2.5-1.5
		c-1.4,0-2.6,0.3-2.6,0.3v1.2c0.7-0.1,1.5-0.3,2.1-0.3C-230.3,527.9-229.9,528.2-229.9,528.5"/>
	<path class="st0" d="M-239.6,532.4c-0.2-0.3-1.3-2.4-1.3-3.9c0-0.4,0.4-0.6,1-0.7c0.6,0,1.4,0.2,2.1,0.3v-1.2c0,0-1.2-0.3-2.6-0.3
		c-2,0-2.5,0.7-2.5,1.5c0,1.5,1.6,4.2,2,4.8C-240.6,532.5-240.1,532.4-239.6,532.4"/>
	<path class="st0" d="M-236.5,524.3c0,0.7,0.5,1.2,1.2,1.2c0.7,0,1.2-0.5,1.2-1.2c0-0.5-0.4-1-0.9-1.2v-0.8h0.7v-0.7h-0.7V521h-0.7
		v0.7h-0.7v0.7h0.7v0.8C-236.2,523.3-236.5,523.8-236.5,524.3"/>
	<path class="st0" d="M-202.4,550.6l1.8-2.4h1.6l-2.3,3.1l2.6,3.7h-1.7l-1.8-2.7l-0.7,0.8v1.9h-1.4v-6.8h1.4v2.3
		c0,0.3,0,0.8-0.1,1.1C-202.8,551.3-202.6,550.9-202.4,550.6"/>
	<path class="st0" d="M-198.4,552.8c0-1.3,1-2.2,2.3-2.2s2.3,0.9,2.3,2.2c0,1.3-1,2.2-2.3,2.2S-198.4,554.1-198.4,552.8
		 M-195.1,552.8c0-0.6-0.4-1.1-1-1.1c-0.6,0-1,0.4-1,1.1c0,0.6,0.4,1.1,1,1.1C-195.5,553.9-195.1,553.5-195.1,552.8"/>
	<path class="st0" d="M-192.8,550.7h1.3v0.7c0.3-0.5,0.8-0.8,1.3-0.8c0.9,0,1.6,0.7,1.6,1.9v2.5h-1.3v-2.4c0-0.5-0.2-0.7-0.7-0.7
		c-0.5,0-0.9,0.3-0.9,0.8v2.3h-1.3L-192.8,550.7L-192.8,550.7z"/>
	<path class="st0" d="M-187.6,549.2c0-0.5,0.4-0.8,0.9-0.8c0.5,0,0.8,0.3,0.8,0.8c0,0.5-0.4,0.8-0.8,0.8
		C-187.2,550-187.6,549.7-187.6,549.2 M-187.4,550.7h1.3v4.2h-1.3V550.7z"/>
	<path class="st0" d="M-184.9,550.7h1.3v0.7c0.3-0.5,0.8-0.8,1.3-0.8c0.9,0,1.6,0.7,1.6,1.9v2.5h-1.3v-2.4c0-0.5-0.2-0.7-0.7-0.7
		c-0.5,0-0.9,0.3-0.9,0.8v2.3h-1.3L-184.9,550.7L-184.9,550.7z"/>
	<path class="st0" d="M-178.2,555h-1.3v-7.2h1.3v3.7c0,0.3,0,0.6-0.1,0.9l1.4-1.6h1.5l-1.5,1.7l1.7,2.5h-1.6l-1.1-1.6l-0.4,0.4
		C-178.2,553.7-178.2,555-178.2,555z"/>
	<rect x="-174.5" y="547.8" class="st0" width="1.3" height="7.2"/>
	<path class="st0" d="M-172.2,549.2c0-0.5,0.4-0.8,0.9-0.8c0.5,0,0.8,0.3,0.8,0.8c0,0.5-0.4,0.8-0.8,0.8
		C-171.8,550-172.2,549.7-172.2,549.2 M-172,550.7h1.3v4.2h-1.3V550.7z"/>
	<path class="st0" d="M-170.8,556.7l0.7-0.8c0.1,0.1,0.2,0.2,0.3,0.2c0.2,0,0.3-0.1,0.3-0.3v-5h1.3v4.9c0,1-0.5,1.5-1.5,1.5
		C-170.1,557.2-170.6,556.9-170.8,556.7 M-169.6,549.2c0-0.5,0.4-0.8,0.9-0.8c0.5,0,0.8,0.3,0.8,0.8c0,0.5-0.4,0.8-0.8,0.8
		C-169.1,550-169.6,549.7-169.6,549.2"/>
	<path class="st0" d="M-165.6,555h-1.3v-7.2h1.3v3.7c0,0.3,0,0.6-0.1,0.9l1.4-1.6h1.5l-1.5,1.7l1.7,2.5h-1.6l-1.1-1.6l-0.4,0.4
		L-165.6,555L-165.6,555z"/>
	<path class="st0" d="M-159.9,553.9c0.5,0,0.9-0.2,1.1-0.3l0.8,0.8c-0.4,0.4-0.9,0.6-1.8,0.6c-1.5,0-2.5-0.9-2.5-2.2
		c0-1.3,1-2.2,2.3-2.2c1.5,0,2.4,1.1,2.3,2.6h-3.2C-160.8,553.7-160.5,553.9-159.9,553.9 M-159.1,552.5c-0.1-0.5-0.4-0.7-0.9-0.7
		s-0.9,0.2-1,0.7H-159.1z"/>
	<polygon class="st0" points="-154.5,548.2 -153.1,548.2 -153.1,551.6 -150.3,551.6 -150.3,548.2 -148.9,548.2 -148.9,555 
		-150.3,555 -150.3,552.9 -153.1,552.9 -153.1,555 -154.5,555 	"/>
	<path class="st0" d="M-145.8,551.7c-0.5,0-0.8,0.2-1,0.4l-0.7-0.8c0.4-0.4,0.8-0.7,1.8-0.7c1.1,0,1.9,0.6,1.9,1.9v2.4h-1.3v-0.6
		c-0.3,0.5-0.7,0.7-1.3,0.7c-0.8,0-1.5-0.3-1.5-1.3c0-0.9,0.7-1.3,1.7-1.3h1C-145.1,551.9-145.3,551.7-145.8,551.7 M-146,553.2
		c-0.3,0-0.5,0.1-0.5,0.4c0,0.2,0.2,0.4,0.6,0.4c0.5,0,0.8-0.2,0.8-0.6v-0.2C-145.1,553.2-146,553.2-146,553.2z"/>
	<path class="st0" d="M-140.8,551.7c-0.5,0-0.8,0.2-1,0.4l-0.7-0.8c0.4-0.4,0.8-0.7,1.8-0.7c1.1,0,1.9,0.6,1.9,1.9v2.4h-1.3v-0.6
		c-0.3,0.5-0.7,0.7-1.3,0.7c-0.8,0-1.5-0.3-1.5-1.3c0-0.9,0.7-1.3,1.7-1.3h1C-140.2,551.9-140.4,551.7-140.8,551.7 M-141.1,553.2
		c-0.3,0-0.5,0.1-0.5,0.4c0,0.2,0.2,0.4,0.6,0.4c0.5,0,0.8-0.2,0.8-0.6v-0.2C-140.1,553.2-141.1,553.2-141.1,553.2z"/>
	<path class="st0" d="M-133.6,550.7v1h-0.6c0.1,0.1,0.2,0.3,0.2,0.5c0,0.9-0.7,1.6-1.8,1.6c-0.3,0-0.6-0.1-0.9-0.2
		c-0.1,0.1-0.1,0.2-0.1,0.3c0,0.2,0.1,0.3,0.4,0.3h1c1.2,0.1,1.8,0.5,1.8,1.4s-0.7,1.6-2.3,1.6c-1.5,0-2.3-0.6-2.3-1.4
		c0-0.5,0.3-0.8,0.8-0.9c-0.3-0.2-0.5-0.5-0.5-0.9s0.2-0.7,0.6-0.8c-0.2-0.3-0.4-0.6-0.4-1c0-0.9,0.7-1.6,1.8-1.6
		c0.2,0,0.4,0,0.6,0.1C-135.2,550.7-133.6,550.7-133.6,550.7z M-136.8,555.6c0,0.3,0.2,0.6,1,0.6s1-0.2,1-0.5c0-0.2-0.2-0.3-0.7-0.3
		l-1.1-0.1C-136.8,555.4-136.8,555.5-136.8,555.6 M-135.2,552.2c0-0.3-0.2-0.6-0.6-0.6c-0.4,0-0.6,0.2-0.6,0.6
		c0,0.4,0.2,0.6,0.6,0.6C-135.5,552.8-135.2,552.5-135.2,552.2"/>
	<path class="st0" d="M-133.1,554.2l0.8-0.7c0.3,0.3,0.7,0.4,1.1,0.4c0.4,0,0.6-0.1,0.6-0.3s-0.3-0.2-1-0.4
		c-0.6-0.1-1.2-0.5-1.2-1.4c0-1,0.7-1.3,1.6-1.3c0.7,0,1.2,0.2,1.5,0.6l-0.7,0.8c-0.2-0.2-0.5-0.3-0.8-0.3c-0.3,0-0.5,0.1-0.5,0.2
		c0,0.2,0.3,0.3,0.8,0.4c0.6,0.1,1.4,0.4,1.4,1.3c0,0.8-0.4,1.4-1.7,1.4C-132.2,555-132.8,554.7-133.1,554.2"/>
	<path class="st0" d="M-128.8,552.8c0-1.3,1-2.2,2.3-2.2c0.8,0,1.4,0.3,1.8,0.8l-1,0.8c-0.2-0.3-0.5-0.4-0.8-0.4
		c-0.6,0-0.9,0.4-0.9,1c0,0.6,0.3,1.1,0.9,1.1c0.4,0,0.7-0.2,0.9-0.4l0.9,0.8c-0.4,0.5-0.9,0.8-1.8,0.8
		C-127.8,555-128.8,554.1-128.8,552.8"/>
	<path class="st0" d="M-123.9,547.8h1.3v3.6c0.3-0.5,0.7-0.8,1.3-0.8c0.9,0,1.6,0.7,1.6,1.9v2.5h-1.3v-2.4c0-0.5-0.2-0.7-0.7-0.7
		c-0.5,0-0.9,0.3-0.9,0.8v2.3h-1.3V547.8z"/>
	<path class="st0" d="M-116.2,553.9c0.5,0,0.9-0.2,1.1-0.3l0.8,0.8c-0.4,0.4-0.9,0.6-1.8,0.6c-1.5,0-2.5-0.9-2.5-2.2
		c0-1.3,1-2.2,2.3-2.2c1.5,0,2.4,1.1,2.3,2.6h-3.2C-117.2,553.7-116.8,553.9-116.2,553.9 M-115.5,552.5c-0.1-0.5-0.4-0.7-0.9-0.7
		s-0.9,0.2-1,0.7H-115.5z"/>
	<path class="st0" d="M-204.5,564.5c0-2,1.4-3.5,3.5-3.5c1.1,0,1.9,0.3,2.5,0.9l-0.9,0.9c-0.3-0.3-0.7-0.6-1.5-0.6
		c-1.2,0-2,0.9-2,2.2s0.8,2.2,2.2,2.2c0.4,0,1-0.1,1.3-0.2v-1h-1.6v-1.2h2.9v2.9c-0.4,0.3-1.4,0.8-2.6,0.8
		C-203,567.9-204.5,566.5-204.5,564.5"/>
	<path class="st0" d="M-197.1,565.7c0-1.3,1-2.2,2.3-2.2s2.3,0.9,2.3,2.2c0,1.3-1,2.2-2.3,2.2S-197.1,567-197.1,565.7 M-193.8,565.7
		c0-0.6-0.4-1.1-1-1.1c-0.6,0-1,0.4-1,1.1c0,0.6,0.4,1.1,1,1.1C-194.2,566.8-193.8,566.4-193.8,565.7"/>
	<rect x="-191.5" y="560.7" class="st0" width="1.3" height="7.2"/>
	<path class="st0" d="M-188.5,564.7h-0.7v-1.1h0.7v-1.4c0-1.1,0.5-1.7,1.6-1.7c0.6,0,1,0.2,1.3,0.5l-0.7,0.9
		c-0.1-0.1-0.2-0.2-0.4-0.2s-0.4,0.1-0.4,0.4v1.4h1.1v1.1h-1.1v3.1h-1.3L-188.5,564.7L-188.5,564.7z"/>
	<path class="st0" d="M-178,565.5c0.2-0.3,0.2-0.8,0.2-1.3h1.3c0,0.9-0.2,1.7-0.7,2.3l1.1,1.3h-1.6l-0.3-0.4
		c-0.5,0.3-1.1,0.5-1.7,0.5c-1.7,0-2.6-0.8-2.6-2c0-1,0.5-1.5,1.6-2c-0.3-0.5-0.5-0.9-0.5-1.3c0-0.9,0.7-1.6,1.8-1.6
		s1.8,0.6,1.8,1.6c0,0.6-0.4,1.2-1.2,1.6L-178,565.5z M-180.3,564.7c-0.6,0.3-0.7,0.7-0.7,1.1c0,0.6,0.4,0.9,1.2,0.9
		c0.4,0,0.7-0.1,1-0.2L-180.3,564.7z M-179.1,562.6c0-0.3-0.2-0.5-0.5-0.5s-0.5,0.2-0.5,0.5c0,0.3,0.2,0.5,0.4,0.8l0,0
		C-179.2,563.1-179.1,562.9-179.1,562.6"/>
	<path class="st0" d="M-172.6,564.5c0-2,1.5-3.5,3.5-3.5c1.2,0,2.1,0.4,2.7,1.4l-1.1,0.8c-0.3-0.5-0.9-0.9-1.6-0.9
		c-1.2,0-2.1,0.9-2.1,2.2s0.8,2.2,2.1,2.2c0.9,0,1.4-0.4,1.7-1l1.1,0.7c-0.6,0.9-1.5,1.5-2.8,1.5
		C-171,567.9-172.6,566.5-172.6,564.5"/>
	<path class="st0" d="M-165.5,565.7c0-1.3,1-2.2,2.3-2.2s2.3,0.9,2.3,2.2c0,1.3-1,2.2-2.3,2.2S-165.5,567-165.5,565.7 M-162.2,565.7
		c0-0.6-0.4-1.1-1-1.1c-0.6,0-1,0.4-1,1.1c0,0.6,0.4,1.1,1,1.1S-162.2,566.4-162.2,565.7"/>
	<path class="st0" d="M-159.9,566.1v-2.5h1.3v2.4c0,0.5,0.2,0.8,0.7,0.8c0.5,0,0.8-0.3,0.8-0.8v-2.3h1.3v4.2h-1.3v-0.7
		c-0.3,0.5-0.7,0.8-1.3,0.8C-159.3,567.9-159.9,567.3-159.9,566.1"/>
	<path class="st0" d="M-154.6,563.6h1.3v0.7c0.3-0.5,0.8-0.8,1.3-0.8c0.9,0,1.6,0.7,1.6,1.9v2.4h-1.3v-2.4c0-0.5-0.2-0.7-0.7-0.7
		c-0.5,0-0.9,0.3-0.9,0.8v2.3h-1.3L-154.6,563.6L-154.6,563.6z"/>
	<path class="st0" d="M-149,566.3v-1.5h-0.6v-1.1h0.6v-2.2h1.3v2.2h1.1v1.1h-1.1v1.6c0,0.4,0.1,0.5,0.3,0.5s0.4-0.1,0.5-0.2l0.5,0.9
		c-0.2,0.2-0.6,0.4-1.2,0.4C-148.4,568-149,567.5-149,566.3"/>
	<path class="st0" d="M-145.6,563.6h1.3v0.8c0.3-0.7,0.8-0.9,1.2-0.9c0.3,0,0.5,0.1,0.7,0.2l-0.4,1.2c-0.2-0.1-0.3-0.1-0.5-0.1
		c-0.6,0-0.9,0.3-0.9,1.2v1.9h-1.3L-145.6,563.6L-145.6,563.6z"/>
	<path class="st0" d="M-140.2,567.4l-1.7-3.8h1.5l0.6,1.6c0.2,0.4,0.3,1.1,0.3,1.1s0.1-0.7,0.3-1.1l0.7-1.6h1.4l-2.8,6.4h-1.3
		L-140.2,567.4z"/>
	<path class="st0" d="M-133.7,564.5c0-2,1.5-3.5,3.5-3.5c1.2,0,2.1,0.4,2.7,1.4l-1.1,0.8c-0.3-0.5-0.9-0.9-1.6-0.9
		c-1.2,0-2.1,0.9-2.1,2.2s0.8,2.2,2.1,2.2c0.9,0,1.4-0.4,1.7-1l1.1,0.7c-0.6,0.9-1.5,1.5-2.8,1.5
		C-132.2,567.9-133.7,566.5-133.7,564.5"/>
	<rect x="-126.5" y="560.7" class="st0" width="1.3" height="7.2"/>
	<path class="st0" d="M-124.1,566.1v-2.5h1.3v2.4c0,0.5,0.2,0.8,0.7,0.8s0.8-0.3,0.8-0.8v-2.3h1.3v4.2h-1.3v-0.7
		c-0.3,0.5-0.7,0.8-1.3,0.8C-123.4,567.9-124.1,567.3-124.1,566.1"/>
	<path class="st0" d="M-117.4,567.2v0.6h-1.3v-7.2h1.3v3.5c0.3-0.4,0.7-0.7,1.3-0.7c1,0,1.9,0.9,1.9,2.2c0,1.3-0.9,2.2-1.9,2.2
		C-116.7,567.9-117.1,567.7-117.4,567.2 M-115.5,565.7c0-0.6-0.4-1-0.9-1c-0.6,0-1,0.4-1,1c0,0.7,0.4,1,1,1
		C-115.8,566.8-115.5,566.4-115.5,565.7"/>
</g>
</svg>
