<svg xmlns="http://www.w3.org/2000/svg" xmlns:xlink="http://www.w3.org/1999/xlink" width="500" zoomAndPan="magnify" viewBox="0 0 375 374.999991" height="500" preserveAspectRatio="xMidYMid meet" version="1.0"><defs><g/><clipPath id="f0337d1c1a"><path d="M 10.367188 3.40625 L 363.148438 3.40625 L 363.148438 356.1875 L 10.367188 356.1875 Z M 10.367188 3.40625 " clip-rule="nonzero"/></clipPath><clipPath id="7b9a6dda31"><path d="M 186.757812 3.40625 C 89.339844 3.40625 10.367188 82.378906 10.367188 179.796875 C 10.367188 277.214844 89.339844 356.1875 186.757812 356.1875 C 284.175781 356.1875 363.148438 277.214844 363.148438 179.796875 C 363.148438 82.378906 284.175781 3.40625 186.757812 3.40625 " clip-rule="nonzero"/></clipPath><clipPath id="fdb7a57de2"><path d="M 17.21875 170.421875 L 357 170.421875 L 357 197.074219 L 17.21875 197.074219 Z M 17.21875 170.421875 " clip-rule="nonzero"/></clipPath></defs><g clip-path="url(#f0337d1c1a)"><g clip-path="url(#7b9a6dda31)"><path fill="#ececec" d="M 10.367188 3.40625 L 363.148438 3.40625 L 363.148438 356.1875 L 10.367188 356.1875 Z M 10.367188 3.40625 " fill-opacity="1" fill-rule="nonzero"/></g></g><g fill="#4b4c4d" fill-opacity="1"><g transform="translate(81.907368, 225.171068)"><g><path d="M 38.878906 0 L 70.722656 0 L 70.722656 -2.539062 C 64.667969 -4.296875 62.910156 -8.792969 62.910156 -24.8125 L 62.910156 -133.632812 L 72.089844 -133.632812 C 89.671875 -133.632812 97.292969 -128.941406 103.933594 -114.875 L 106.085938 -115.265625 L 104.914062 -136.757812 L 4.296875 -136.757812 L 3.125 -115.265625 L 5.273438 -114.875 C 11.917969 -128.941406 19.535156 -133.632812 37.121094 -133.632812 L 46.691406 -133.632812 L 46.691406 -24.8125 C 46.691406 -8.792969 44.933594 -4.296875 38.878906 -2.539062 Z M 38.878906 0 "/></g></g></g><g fill="#4b4c4d" fill-opacity="1"><g transform="translate(178.465898, 275.249982)"><g><path d="M 55.574219 1.949219 C 78.585938 1.949219 101.203125 -12.871094 101.203125 -37.246094 C 101.203125 -59.28125 80.925781 -67.859375 59.28125 -76.441406 C 42.703125 -83.265625 22.621094 -90.675781 22.621094 -109.003906 C 22.621094 -125.578125 36.074219 -134.746094 51.871094 -134.746094 C 74.101562 -134.746094 87.75 -122.65625 94.964844 -105.691406 L 96.914062 -106.273438 L 96.136719 -128.894531 C 88.53125 -132.988281 75.855469 -137.863281 58.109375 -137.863281 C 29.445312 -137.863281 10.53125 -123.433594 10.53125 -100.621094 C 10.53125 -79.949219 25.15625 -71.761719 48.164062 -62.59375 C 64.546875 -55.964844 88.53125 -46.996094 88.53125 -27.496094 C 88.53125 -11.699219 75.074219 -1.558594 59.476562 -1.558594 C 32.371094 -1.558594 17.550781 -18.914062 9.945312 -39.390625 L 7.800781 -39 L 8.773438 -11.894531 C 17.941406 -5.265625 35.101562 1.949219 55.574219 1.949219 Z M 55.574219 1.949219 "/></g></g></g><g clip-path="url(#fdb7a57de2)"><path fill="#ececec" d="M 17.21875 170.421875 L 356.855469 170.421875 L 356.855469 197.179688 L 17.21875 197.179688 Z M 17.21875 170.421875 " fill-opacity="1" fill-rule="nonzero"/></g><g fill="#4b4c4d" fill-opacity="1"><g transform="translate(18.420882, 189.171931)"><g><path d="M 3.640625 -9.265625 L 0.0625 -9.265625 L 0.0625 -10.203125 L 8.3125 -10.203125 L 8.3125 -9.265625 L 4.71875 -9.265625 L 4.71875 0 L 3.640625 0 Z M 3.640625 -9.265625 "/></g></g></g><g fill="#4b4c4d" fill-opacity="1"><g transform="translate(38.445909, 189.171931)"><g><path d="M 1.65625 -10.203125 L 2.734375 -10.203125 L 2.734375 0 L 1.65625 0 Z M 1.65625 -10.203125 "/></g></g></g><g fill="#4b4c4d" fill-opacity="1"><g transform="translate(54.508888, 189.171931)"><g><path d="M 12.265625 -10.203125 L 12.265625 0 L 11.21875 0 L 11.21875 -8.15625 L 7.21875 -1.296875 L 6.703125 -1.296875 L 2.703125 -8.125 L 2.703125 0 L 1.65625 0 L 1.65625 -10.203125 L 2.546875 -10.203125 L 6.984375 -2.640625 L 11.375 -10.203125 Z M 12.265625 -10.203125 "/></g></g></g><g fill="#4b4c4d" fill-opacity="1"><g transform="translate(80.083705, 189.171931)"><g/></g></g><g fill="#4b4c4d" fill-opacity="1"><g transform="translate(95.564029, 189.171931)"><g><path d="M 10.140625 -10.203125 L 5.625 0 L 4.5625 0 L 0.046875 -10.203125 L 1.203125 -10.203125 L 5.109375 -1.34375 L 9.046875 -10.203125 Z M 10.140625 -10.203125 "/></g></g></g><g fill="#4b4c4d" fill-opacity="1"><g transform="translate(117.395286, 189.171931)"><g><path d="M 8.0625 -2.71875 L 2.375 -2.71875 L 1.15625 0 L 0.03125 0 L 4.6875 -10.203125 L 5.765625 -10.203125 L 10.421875 0 L 9.28125 0 Z M 7.671875 -3.59375 L 5.21875 -9.078125 L 2.765625 -3.59375 Z M 7.671875 -3.59375 "/></g></g></g><g fill="#4b4c4d" fill-opacity="1"><g transform="translate(139.503313, 189.171931)"><g><path d="M 10.1875 -10.203125 L 10.1875 0 L 9.296875 0 L 2.734375 -8.28125 L 2.734375 0 L 1.65625 0 L 1.65625 -10.203125 L 2.546875 -10.203125 L 9.125 -1.921875 L 9.125 -10.203125 Z M 10.1875 -10.203125 "/></g></g></g><g fill="#4b4c4d" fill-opacity="1"><g transform="translate(163.009705, 189.171931)"><g/></g></g><g fill="#4b4c4d" fill-opacity="1"><g transform="translate(178.490036, 189.171931)"><g><path d="M 1.65625 -10.203125 L 5.8125 -10.203125 C 6.894531 -10.203125 7.847656 -9.984375 8.671875 -9.546875 C 9.492188 -9.117188 10.132812 -8.519531 10.59375 -7.75 C 11.050781 -6.976562 11.28125 -6.097656 11.28125 -5.109375 C 11.28125 -4.109375 11.050781 -3.222656 10.59375 -2.453125 C 10.132812 -1.679688 9.492188 -1.078125 8.671875 -0.640625 C 7.847656 -0.210938 6.894531 0 5.8125 0 L 1.65625 0 Z M 5.765625 -0.9375 C 6.648438 -0.9375 7.425781 -1.113281 8.09375 -1.46875 C 8.769531 -1.820312 9.289062 -2.3125 9.65625 -2.9375 C 10.03125 -3.5625 10.21875 -4.285156 10.21875 -5.109375 C 10.21875 -5.921875 10.03125 -6.640625 9.65625 -7.265625 C 9.289062 -7.890625 8.769531 -8.378906 8.09375 -8.734375 C 7.425781 -9.085938 6.648438 -9.265625 5.765625 -9.265625 L 2.734375 -9.265625 L 2.734375 -0.9375 Z M 5.765625 -0.9375 "/></g></g></g><g fill="#4b4c4d" fill-opacity="1"><g transform="translate(202.185793, 189.171931)"><g><path d="M 8.875 -0.9375 L 8.875 0 L 1.65625 0 L 1.65625 -10.203125 L 8.65625 -10.203125 L 8.65625 -9.265625 L 2.734375 -9.265625 L 2.734375 -5.640625 L 8.015625 -5.640625 L 8.015625 -4.71875 L 2.734375 -4.71875 L 2.734375 -0.9375 Z M 8.875 -0.9375 "/></g></g></g><g fill="#4b4c4d" fill-opacity="1"><g transform="translate(223.59462, 189.171931)"><g><path d="M 8.625 0 L 6.296875 -3.28125 C 6.035156 -3.25 5.765625 -3.234375 5.484375 -3.234375 L 2.734375 -3.234375 L 2.734375 0 L 1.65625 0 L 1.65625 -10.203125 L 5.484375 -10.203125 C 6.785156 -10.203125 7.804688 -9.890625 8.546875 -9.265625 C 9.285156 -8.648438 9.65625 -7.796875 9.65625 -6.703125 C 9.65625 -5.910156 9.453125 -5.238281 9.046875 -4.6875 C 8.640625 -4.132812 8.0625 -3.738281 7.3125 -3.5 L 9.8125 0 Z M 5.453125 -4.15625 C 6.460938 -4.15625 7.234375 -4.378906 7.765625 -4.828125 C 8.304688 -5.273438 8.578125 -5.898438 8.578125 -6.703125 C 8.578125 -7.523438 8.304688 -8.15625 7.765625 -8.59375 C 7.234375 -9.039062 6.460938 -9.265625 5.453125 -9.265625 L 2.734375 -9.265625 L 2.734375 -4.15625 Z M 5.453125 -4.15625 "/></g></g></g><g fill="#4b4c4d" fill-opacity="1"><g transform="translate(245.790046, 189.171931)"><g/></g></g><g fill="#4b4c4d" fill-opacity="1"><g transform="translate(261.270376, 189.171931)"><g><path d="M 4.46875 0.09375 C 3.71875 0.09375 2.992188 -0.0234375 2.296875 -0.265625 C 1.597656 -0.515625 1.0625 -0.835938 0.6875 -1.234375 L 1.109375 -2.0625 C 1.472656 -1.695312 1.960938 -1.398438 2.578125 -1.171875 C 3.191406 -0.941406 3.820312 -0.828125 4.46875 -0.828125 C 5.382812 -0.828125 6.070312 -0.992188 6.53125 -1.328125 C 6.988281 -1.671875 7.21875 -2.109375 7.21875 -2.640625 C 7.21875 -3.046875 7.09375 -3.367188 6.84375 -3.609375 C 6.59375 -3.859375 6.285156 -4.046875 5.921875 -4.171875 C 5.566406 -4.304688 5.070312 -4.453125 4.4375 -4.609375 C 3.664062 -4.796875 3.050781 -4.976562 2.59375 -5.15625 C 2.132812 -5.34375 1.742188 -5.617188 1.421875 -5.984375 C 1.097656 -6.359375 0.9375 -6.863281 0.9375 -7.5 C 0.9375 -8.007812 1.070312 -8.472656 1.34375 -8.890625 C 1.613281 -9.316406 2.03125 -9.65625 2.59375 -9.90625 C 3.15625 -10.164062 3.851562 -10.296875 4.6875 -10.296875 C 5.269531 -10.296875 5.84375 -10.210938 6.40625 -10.046875 C 6.96875 -9.890625 7.453125 -9.671875 7.859375 -9.390625 L 7.5 -8.53125 C 7.070312 -8.8125 6.613281 -9.019531 6.125 -9.15625 C 5.632812 -9.300781 5.15625 -9.375 4.6875 -9.375 C 3.800781 -9.375 3.128906 -9.203125 2.671875 -8.859375 C 2.222656 -8.515625 2 -8.066406 2 -7.515625 C 2 -7.109375 2.117188 -6.78125 2.359375 -6.53125 C 2.609375 -6.289062 2.921875 -6.101562 3.296875 -5.96875 C 3.671875 -5.832031 4.175781 -5.691406 4.8125 -5.546875 C 5.5625 -5.359375 6.164062 -5.171875 6.625 -4.984375 C 7.082031 -4.804688 7.472656 -4.535156 7.796875 -4.171875 C 8.117188 -3.804688 8.28125 -3.316406 8.28125 -2.703125 C 8.28125 -2.179688 8.140625 -1.707031 7.859375 -1.28125 C 7.585938 -0.863281 7.164062 -0.53125 6.59375 -0.28125 C 6.019531 -0.03125 5.3125 0.09375 4.46875 0.09375 Z M 4.46875 0.09375 "/></g></g></g><g fill="#4b4c4d" fill-opacity="1"><g transform="translate(281.892629, 189.171931)"><g><path d="M 3.640625 -9.265625 L 0.0625 -9.265625 L 0.0625 -10.203125 L 8.3125 -10.203125 L 8.3125 -9.265625 L 4.71875 -9.265625 L 4.71875 0 L 3.640625 0 Z M 3.640625 -9.265625 "/></g></g></g><g fill="#4b4c4d" fill-opacity="1"><g transform="translate(301.91766, 189.171931)"><g><path d="M 8.875 -0.9375 L 8.875 0 L 1.65625 0 L 1.65625 -10.203125 L 8.65625 -10.203125 L 8.65625 -9.265625 L 2.734375 -9.265625 L 2.734375 -5.640625 L 8.015625 -5.640625 L 8.015625 -4.71875 L 2.734375 -4.71875 L 2.734375 -0.9375 Z M 8.875 -0.9375 "/></g></g></g><g fill="#4b4c4d" fill-opacity="1"><g transform="translate(323.326487, 189.171931)"><g><path d="M 8.875 -0.9375 L 8.875 0 L 1.65625 0 L 1.65625 -10.203125 L 8.65625 -10.203125 L 8.65625 -9.265625 L 2.734375 -9.265625 L 2.734375 -5.640625 L 8.015625 -5.640625 L 8.015625 -4.71875 L 2.734375 -4.71875 L 2.734375 -0.9375 Z M 8.875 -0.9375 "/></g></g></g><g fill="#4b4c4d" fill-opacity="1"><g transform="translate(344.735314, 189.171931)"><g><path d="M 10.1875 -10.203125 L 10.1875 0 L 9.296875 0 L 2.734375 -8.28125 L 2.734375 0 L 1.65625 0 L 1.65625 -10.203125 L 2.546875 -10.203125 L 9.125 -1.921875 L 9.125 -10.203125 Z M 10.1875 -10.203125 "/></g></g></g></svg>